<?xml version="1.0" encoding="utf-8"?>
<!-- Generator: Adobe Illustrator 19.2.1, SVG Export Plug-In . SVG Version: 6.00 Build 0)  -->
<svg version="1.1" id="Capa_1" xmlns="http://www.w3.org/2000/svg" xmlns:xlink="http://www.w3.org/1999/xlink" x="0px" y="0px"
	 viewBox="0 0 1024 1024" style="enable-background:new 0 0 1024 1024;" xml:space="preserve">
<style type="text/css">
	.st0{fill:#AEDBED;}
	.st1{fill:#7961DB;}
	.st2{fill:#634DBF;}
	.st3{fill:#433E84;}
	.st4{fill:#FFFFFF;}
	.st5{fill:#4C90F0;}
	.st6{fill:#147EB3;}
	.st7{fill:#15759B;}
	.st8{fill:#2D72D2;}
	.st9{fill:#2466B5;}
	.st10{fill:#00A396;}
	.st11{fill:#007067;}
	.st12{fill:#004F47;}
</style>
<path class="st0" d="M512,44C241.4,44,22,263.4,22,534c0,101.6,31,196.2,84,274.4V716c0-15.4,12.6-28,28-28h608
	c15.4,0,28,12.6,28,28v178.2c0,15.4-12.6,28-28,28H213C295.8,986,399.4,1024,512,1024c270.6,0,490-219.4,490-490S782.6,44,512,44z"
	/>
<path class="st1" d="M341.6,345.3c0-15.8,12.8-28.6,28.6-28.6h43.4v-98.4c0-8.6,0.6-16.8,1.4-25.2c-4.4-2-9.2-3-14.4-3H95.2
	c-19.4,0-35.2,15.8-35.2,35.2v305.6c0,19.4,15.8,35.2,35.2,35.2h246.4L341.6,345.3L341.6,345.3z"/>
<path class="st2" d="M154,530.8V225.3c0-19.4,15.8-35.2,35.2-35.2h-94c-19.4,0-35.2,15.8-35.2,35.2v305.6
	c0,19.4,15.8,35.2,35.2,35.2h94C169.8,566,154,550.3,154,530.8z"/>
<path class="st3" d="M222.8,448.8c-5.6-3-9.4-8.8-9.4-15.6v-23c0-17.8,14.4-32.2,32.2-32.2c26.2,0,47.6-21.4,47.6-47.6v-1.2
	c0-24.8-20.2-45-45-45c-2.8,0-5.6,0.2-8.2,0.8c21,3.8,37,22.2,37,44.4v1.2c0,26.2-21.4,47.6-47.6,47.6c-17.8,0-32.2,14.4-32.2,32.2
	v23c0,9.8,7.8,17.6,17.6,17.6C217.4,450.8,220.2,450.2,222.8,448.8L222.8,448.8z M167.6,334v-5c0-41.6,31.6-75.8,72.2-80
	c-2.6-0.2-5.4-0.4-8.2-0.4c-44.4,0-80.4,36-80.4,80.4v5c0,9.8,7.8,17.6,17.6,17.6c3,0,5.8-0.8,8.2-2
	C171.4,346.9,167.6,340.9,167.6,334z M213.2,489.6v-2.4c0-6.8,3.8-12.6,9.4-15.6c-2.4-1.2-5.2-2-8.2-2c-9.8,0-17.6,7.8-17.6,17.6
	v2.4c0,9.8,7.8,17.6,17.6,17.6c3,0,5.8-0.8,8.2-2C217.2,502.3,213.2,496.5,213.2,489.6z"/>
<g>
	<path class="st4" d="M230.8,450.8c-9.8,0-17.6-7.8-17.6-17.6v-23c0-17.8,14.4-32.2,32.2-32.2c26.2,0,47.6-21.4,47.6-47.6v-1.2
		c0-24.8-20.2-45-45-45s-45,20.2-45,45v5c0,9.8-7.8,17.6-17.6,17.6s-17.6-7.8-17.6-17.6v-5c0-44.4,36-80.4,80.4-80.4
		s80.4,36,80.4,80.4v1.2c0,44.6-35.6,81.2-79.8,82.8v20C248.6,443,240.6,450.8,230.8,450.8L230.8,450.8z M230.8,507.3
		c-9.8,0-17.6-7.8-17.6-17.6v-2.4c0-9.8,7.8-17.6,17.6-17.6s17.6,7.8,17.6,17.6v2.4C248.6,499.4,240.6,507.3,230.8,507.3z"/>
</g>
<g>
	<path class="st5" d="M749.6,689c11.8,3.4,20.4,14.2,20.4,27v86h119.4c17,0,30.6-13.8,30.6-30.6V689H749.6z"/>
	<path class="st6" d="M500,316.6v-98.4c0-71.6,58.2-129.8,129.8-129.8s129.8,58.2,129.8,129.8v98.4H848v-98.4
		C848,97.8,750.2,0,629.8,0S411.6,97.8,411.6,218.3v98.4H500V316.6z"/>
	<path class="st7" d="M759.6,218.3v98.4h51.2v-98.4c0-71.6-58.2-129.8-129.8-129.8c-8.8,0-17.4,0.8-25.6,2.6
		C714.8,103.1,759.6,155.5,759.6,218.3L759.6,218.3z M462.8,316.6v-98.4c0-111.6,84.2-204,192.6-216.8c-8.4-1-17-1.6-25.6-1.6
		C509.4-0.2,411.6,97.6,411.6,218v98.4h51.2L462.8,316.6z"/>
	<path class="st8" d="M889.4,314.6H370.2c-17,0-30.6,13.8-30.6,30.6V688H742c4.6,0,8.8,1.2,12.8,3H920V345.3
		C920,328.5,906.2,314.6,889.4,314.6z"/>
	<path class="st9" d="M452.6,688V345.3c0-17,13.8-30.6,30.6-30.6h-113c-17,0-30.6,13.8-30.6,30.6V688H452.6z"/>
	<path class="st5" d="M620.8,666.6c-28.2,0-51-22.8-51-51v-65.8c-24.8-20-38-51-35-83.4c4.4-46,42.4-83,88.4-86.2
		c2.2-0.2,4.4-0.2,6.8-0.2c52.6,0,95.6,42.8,95.6,95.6c0,29.2-13,56.2-35.4,74.2v65.8c0,28.2-22.8,51-51,51H620.8L620.8,666.6z"/>
	<path class="st6" d="M694.8,475.6c0-37.4-31.6-67.4-69.6-64.8c-31.4,2.2-57,27.2-60,58.4c-2.4,25.8,10.2,48.8,30.2,61.4
		c3,1.8,5,5.2,5,8.6v76.4c0,11.2,9.2,20.4,20.4,20.4H639c11.2,0,20.4-9.2,20.4-20.4v-76.4c0-3.6,2-6.8,5-8.8
		C682.6,519,694.8,498.8,694.8,475.6L694.8,475.6z"/>
	<path class="st7" d="M633.8,615.6v-76.4c0-3.6-2-6.8-5-8.6c-20-12.6-32.6-35.6-30.2-61.4c2.6-27.2,22.2-49.6,48-56.4
		c-6.8-1.8-13.8-2.6-21.4-2c-31.4,2.2-57,27.2-60,58.4c-2.4,25.8,10.2,48.8,30.2,61.4c3,1.8,5,5.2,5,8.6v76.4
		c0,11.2,9.2,20.4,20.4,20.4H639c2.6,0,5.2-0.6,7.6-1.4C639,631.6,633.8,624.2,633.8,615.6z"/>
</g>
<g>
	<path class="st10" d="M742,686H134c-16.6,0-30,13.4-30,30v89.4c30.4,45.6,68.2,85.6,111.6,118.8H742c16.6,0,30-13.4,30-30V716
		C772,699.5,758.6,686,742,686z"/>
	<path class="st11" d="M230,686h-96c-16.6,0-30,13.4-30,30v89.4c30.4,45.6,68.2,85.6,111.6,118.8H230c-16.6,0-30-13.4-30-30V716
		C200,699.5,213.4,686,230,686z"/>
	<path class="st12" d="M219.4,784.3v-27.6c0-3.4,1.4-6.6,3.8-8.8c-2.2-2-5-3.2-8.2-3.2c-6.6,0-12,5.4-12,12v18.2L219.4,784.3
		L219.4,784.3z M243.4,784.3l21.4-12.4c-3.8-3.4-9.4-4-14-1.4l-7.4,4.4V784.3z M243.4,825.8v9.6l7.4,4.4c1.8,1,4,1.6,6,1.6
		c3,0,5.8-1,8-3L243.4,825.8z M179.2,835.3c-3.4-5.8-1.4-13,4.4-16.4l24-13.8l-24-13.8c-5.8-3.4-7.8-10.6-4.4-16.4
		c0.6-1.2,1.4-2.2,2.4-3l-2.4-1.4c-5.8-3.4-13-1.4-16.4,4.4c-3.4,5.8-1.4,13,4.4,16.4l24,13.8l-24,13.8c-5.8,3.4-7.8,10.6-4.4,16.4
		c2.2,3.8,6.2,6,10.4,6c2,0,4.2-0.6,6-1.6l2.6-1.4C180.6,837.5,179.8,836.5,179.2,835.3z M219.4,853.6V826l-16.4,9.6v18.2
		c0,6.6,5.4,12,12,12c3.2,0,6-1.2,8.2-3.2C221,860,219.4,857,219.4,853.6z"/>
	<g>
		<path class="st12" d="M316.8,835.3c-3.4-5.8-1.4-13,4.4-16.4l24-13.8l-24-13.8c-5.8-3.4-7.8-10.6-4.4-16.4c0.6-1.2,1.4-2.2,2.4-3
			l-2.4-1.4c-5.8-3.4-13-1.4-16.4,4.4c-3.4,5.8-1.4,13,4.4,16.4l24,13.8l-24,13.8c-5.8,3.4-7.8,10.6-4.4,16.4c2.2,3.8,6.2,6,10.4,6
			c2,0,4.2-0.6,6-1.6l2.6-1.4C318.4,837.5,317.4,836.5,316.8,835.3z M381.2,784.3l21.4-12.4c-3.8-3.4-9.4-4-14-1.4l-7.4,4.4V784.3z
			 M357.2,784.3v-27.6c0-3.4,1.4-6.6,3.8-8.8c-2.2-2-5-3.2-8.2-3.2c-6.6,0-12,5.4-12,12v18.2L357.2,784.3L357.2,784.3z M357.2,853.6
			V826l-16.4,9.6v18.2c0,6.6,5.4,12,12,12c3.2,0,6-1.2,8.2-3.2C358.6,860,357.2,857,357.2,853.6L357.2,853.6z M381.2,825.8v9.6
			l7.4,4.4c1.8,1,4,1.6,6,1.6c3,0,5.8-1,8-3L381.2,825.8z"/>
	</g>
	<g>
		<path class="st12" d="M518.8,784.3l21.4-12.4c-3.8-3.4-9.4-4-14-1.4l-7.4,4.4V784.3z M494.8,784.3v-27.6c0-3.4,1.4-6.6,3.8-8.8
			c-2.2-2-5-3.2-8.2-3.2c-6.6,0-12,5.4-12,12v18.2L494.8,784.3L494.8,784.3z M454.4,835.3c-3.4-5.8-1.4-13,4.4-16.4l24-13.8
			l-24-13.8c-5.8-3.4-7.8-10.6-4.4-16.4c0.6-1.2,1.4-2.2,2.4-3l-2.4-1.4c-5.8-3.4-13-1.4-16.4,4.4c-3.4,5.8-1.4,13,4.4,16.4l24,13.8
			l-24,13.8c-5.8,3.4-7.8,10.6-4.4,16.4c2.2,3.8,6.2,6,10.4,6c2,0,4.2-0.6,6-1.6l2.6-1.4C456,837.5,455.2,836.5,454.4,835.3z
			 M518.8,825.8v9.6l7.4,4.4c1.8,1,4,1.6,6,1.6c3,0,5.8-1,8-3L518.8,825.8z M494.8,853.6V826l-16.4,9.6v18.2c0,6.6,5.4,12,12,12
			c3.2,0,6-1.2,8.2-3.2C496.2,860,494.8,857,494.8,853.6L494.8,853.6z"/>
	</g>
	<g>
		<path class="st12" d="M656.6,784.3L678,772c-3.8-3.4-9.4-4-14-1.4l-7.4,4.4V784.3z M632.6,784.3v-27.6c0-3.4,1.4-6.6,3.8-8.8
			c-2.2-2-5-3.2-8.2-3.2c-6.6,0-12,5.4-12,12v18.2L632.6,784.3L632.6,784.3z M656.6,825.8v9.6l7.4,4.4c1.8,1,4,1.6,6,1.6
			c3,0,5.8-1,8-3L656.6,825.8z M632.6,853.6V826l-16.4,9.6v18.2c0,6.6,5.4,12,12,12c3.2,0,6-1.2,8.2-3.2
			C634,860,632.6,857,632.6,853.6z M592.2,835.3c-3.4-5.8-1.4-13,4.4-16.4l24-13.8l-24-13.8c-5.8-3.4-7.8-10.6-4.4-16.4
			c0.6-1.2,1.4-2.2,2.4-3l-2.4-1.4c-5.8-3.4-13-1.4-16.4,4.4c-3.4,5.8-1.4,13,4.4,16.4l24,13.8l-24,13.8c-5.8,3.4-7.8,10.6-4.4,16.4
			c2.2,3.8,6.2,6,10.4,6c2,0,4-0.6,6-1.6l2.6-1.4C593.6,837.5,592.8,836.5,592.2,835.3z"/>
	</g>
	<g>
		<path class="st4" d="M283.8,774.8c-3.4-5.8-10.6-7.8-16.4-4.4l-24,13.8v-27.6c0-6.6-5.4-12-12-12s-12,5.4-12,12v27.6l-24-13.8
			c-5.8-3.4-13-1.4-16.4,4.4c-3.4,5.8-1.4,13,4.4,16.4l24,13.8l-24,13.8c-5.8,3.4-7.8,10.6-4.4,16.4c2.2,3.8,6.2,6,10.4,6
			c2,0,4.2-0.6,6-1.6l24-13.8v27.6c0,6.6,5.4,12,12,12s12-5.4,12-12v-27.6l24,13.8c1.8,1,4,1.6,6,1.6c4.2,0,8.2-2.2,10.4-6
			c3.4-5.8,1.4-13-4.4-16.4l-24-13.8l24-13.8C285.2,788,287.2,780.7,283.8,774.8z M421.6,774.8c-3.4-5.8-10.6-7.8-16.4-4.4l-24,13.8
			v-27.6c0-6.6-5.4-12-12-12s-12,5.4-12,12v27.6l-24-13.8c-5.8-3.4-13-1.4-16.4,4.4c-3.4,5.8-1.4,13,4.4,16.4l24,13.8l-24,13.8
			c-5.8,3.4-7.8,10.6-4.4,16.4c2.2,3.8,6.2,6,10.4,6c2,0,4.2-0.6,6-1.6l24-13.8v27.6c0,6.6,5.4,12,12,12s12-5.4,12-12v-27.6l24,13.8
			c1.8,1,4,1.6,6,1.6c4.2,0,8.2-2.2,10.4-6c3.4-5.8,1.4-13-4.4-16.4l-24-13.8l24-13.8C422.8,788,424.8,780.7,421.6,774.8z
			 M559.2,774.8c-3.4-5.8-10.6-7.8-16.4-4.4l-24,13.8v-27.6c0-6.6-5.4-12-12-12s-12,5.4-12,12v27.6l-24-13.8
			c-5.8-3.4-13-1.4-16.4,4.4c-3.4,5.8-1.4,13,4.4,16.4l24,13.8l-24,13.8c-5.8,3.4-7.8,10.6-4.4,16.4c2.2,3.8,6.2,6,10.4,6
			c2,0,4.2-0.6,6-1.6l24-13.8v27.6c0,6.6,5.4,12,12,12c6.6,0,12-5.4,12-12v-27.6l24,13.8c1.8,1,4,1.6,6,1.6c4.2,0,8.2-2.2,10.4-6
			c3.4-5.8,1.4-13-4.4-16.4l-24-13.8l24-13.8C560.6,788,562.4,780.7,559.2,774.8z M692.4,819l-24-13.8l24-13.8
			c5.8-3.4,7.8-10.6,4.4-16.4c-3.4-5.8-10.6-7.8-16.4-4.4l-24,13.8v-27.6c0-6.6-5.4-12-12-12s-12,5.4-12,12v27.6l-24-13.8
			c-5.8-3.4-13-1.4-16.4,4.4c-3.4,5.8-1.4,13,4.4,16.4l24,13.8l-24,13.8c-5.8,3.4-7.8,10.6-4.4,16.4c2.2,3.8,6.2,6,10.4,6
			c2,0,4-0.6,6-1.6l24-13.8v27.6c0,6.6,5.4,12,12,12s12-5.4,12-12V826l24,13.8c1.8,1,4,1.6,6,1.6c4.2,0,8.2-2.2,10.4-6
			C700.2,829.6,698.2,822.2,692.4,819L692.4,819z"/>
	</g>
</g>
</svg>
